# xmcd CD database file
#
# Track frame offsets:
#	150
#	19681
#	49566
#	81115
#	112275
#	137116
#	159833
#	195929
#	227634
#	261629
#	298748
#	319972
#
# Disc length: 4632 seconds
#
# Revision: 0
# Processed by: cddbd v1.5.2PL0 Copyright (c) Steve Scherf et al.
# Submitted via: CDex 1.70beta2
#
DISCID=a712160c
DTITLE=Mike Janzen Trio - Mombacho
DYEAR=2008
DGENRE=Jazz
TTITLE0=Around the Block
TTITLE1=Mombacho
TTITLE2=Beauty
TTITLE3=Mrs. Robinson
TTITLE4=Masaya
TTITLE5=Swankometer
TTITLE6=Almost Tango
TTITLE7=Where it Goes
TTITLE8=Trail Runner
TTITLE9=God Put a Smile Upon my Face
TTITLE10=All the Diamonds
TTITLE11=Red Rocket
EXTD=YEAR: 2008
EXTT0=
EXTT1=
EXTT2=
EXTT3=
EXTT4=
EXTT5=
EXTT6=
EXTT7=
EXTT8=
EXTT9=
EXTT10=
EXTT11=
PLAYORDER=
